# xmcd CD database file
#
# Track frame offsets:
#	150
#	24627
#	45377
#
# Disc length: 930 seconds
#
# Revision: 0
# Processed by: cddbd v1.5PL3 Copyright (c) Steve Scherf et al.
# Submitted via: CDex 1.50
#
DISCID=1a03a003
DTITLE=渡辺美里 - Single
DYEAR=1998
DGENRE=JPop
TTITLE0=素顔
TTITLE1=雪の一日
TTITLE2=素顔 [Original Backing Track]
EXTD=YEAR: 1998
EXTT0=
EXTT1=
EXTT2=
PLAYORDER=
